<svg width="50" height="51" viewBox="0 0 50 51" fill="none" xmlns="http://www.w3.org/2000/svg">
<path d="M44.4444 0.324219H5.55556C2.47222 0.324219 0 2.79644 0 5.87977V16.9909H5.55556V5.87977H44.4444V44.7687H5.55556V33.6576H0V44.7687C0 46.2421 0.585316 47.6552 1.62718 48.697C2.66905 49.7389 4.08213 50.3242 5.55556 50.3242H44.4444C45.9179 50.3242 47.3309 49.7389 48.3728 48.697C49.4147 47.6552 50 46.2421 50 44.7687V5.87977C50 2.79644 47.5 0.324219 44.4444 0.324219ZM19.6667 35.2687L23.6111 39.2131L37.5 25.3242L23.6111 11.4353L19.6667 15.352L26.8611 22.5464H0V28.102H26.8611L19.6667 35.2687Z" fill="white"/>
</svg>
