<svg width="56" height="55" viewBox="0 0 56 55" fill="none" xmlns="http://www.w3.org/2000/svg">
<rect width="56" height="54.6484" rx="27.3242" fill="#FF9200"/>
<path d="M36.9558 16H40V18.5263H37.9916L31.3095 25.2084L29.5284 23.4526L36.9558 16ZM27.3684 23.5789C27.6968 23.5789 28 23.7053 28.2653 23.9579L30.7916 26.4842C31.0189 26.7368 31.1579 27.0274 31.1579 27.3684L31.0316 27.8737L25.9789 37.9789C25.7389 38.4211 25.2968 38.6484 24.8421 38.6484C24.4 38.6484 23.9453 38.4211 23.7179 37.9789L21.3684 33.3053L16.6947 31.0316C16.2274 30.7789 16 30.3368 16 29.8947C16 29.4526 16.2274 29.0105 16.6947 28.7579L26.8 23.7053C26.9768 23.5789 27.1663 23.5789 27.3684 23.5789ZM24.0211 27.1411L23.1368 28L26.7368 31.6L27.5958 30.7158L24.0211 27.1411ZM22.24 28.9221L21.3432 29.8189L24.9179 33.3937L25.8147 32.4968L22.24 28.9221Z" fill="white"/>
</svg>
